<?xml version="1.0" encoding="utf-8"?>
<!-- Svg Vector Icons : http://www.onlinewebfonts.com/icon -->
<!DOCTYPE svg PUBLIC "-//W3C//DTD SVG 1.1//EN" "http://www.w3.org/Graphics/SVG/1.1/DTD/svg11.dtd">
<svg width="56" height="56" version="1.1" xmlns="http://www.w3.org/2000/svg" xmlns:xlink="http://www.w3.org/1999/xlink" x="0px" y="0px" viewBox="0 0 256 256" enable-background="new 0 0 256 256" xml:space="preserve">
<metadata> Svg Vector Icons : http://www.onlinewebfonts.com/icon </metadata>
<g><g><g><path fill="#ffffff" d="M197.3,12.9l-9.4,9.4l-4.1-2.2c-11.4-6.2-25.1-10.7-38.3-12.8c-7-1.1-20.4-1.5-27.9-0.8C84.1,9.6,53.7,26.5,33.8,53.1c-12.9,17.3-20.4,35.6-23.1,57c-1,7.6-0.9,22.1,0,29.6c2.6,19.5,9.7,37.5,21.1,53.7l2.7,3.9l12.4-12.4l12.4-12.4l-2.2-3.4c-1.2-1.9-3.4-5.9-4.8-8.8c-17-36-6.1-79.4,26-103.2c22.8-17,52.9-21.1,79.2-11l4.6,1.8l-7.2,7.2l-7.2,7.2l29.5,0.3c16.2,0.1,29.6,0.2,29.6,0.1c0.1-0.1,0.1-13.4,0-29.5l-0.1-29.4L197.3,12.9z"/><path fill="#ffffff" d="M213.9,72.3l-13.2,11.1l2,3.9c16.7,33.5,10,72.7-16.8,98.7c-19.8,19.2-48.8,27.4-75.4,21.4c-9.3-2.1-9.2-0.8-1.2-10.7c3.8-4.7,6.8-8.6,6.7-8.7c-0.2-0.2-58.2,6-58.4,6.2c-0.1,0.1,6.1,57.5,6.3,58.1c0,0.2,3.4-3.6,7.4-8.5c4-4.9,7.5-9.3,7.8-9.7c0.5-0.5,1.4-0.3,5.5,1.3c15.2,6.2,29.9,8.8,47.2,8.3c25.3-0.8,48.6-9.2,69.2-25.2c6.2-4.8,16.3-15.2,21.2-21.7c15.9-21.2,23.8-45,23.7-71.7c0-17.3-3.3-32.8-10.2-48.2c-2.1-4.7-7.3-14.4-8.3-15.5C227.3,61.4,221.2,66.2,213.9,72.3z"/><path fill="#ffffff" d="M121.7,70.6c-0.1,0.3-0.3,3.8-0.3,7.7l-0.1,7l-2.8,0.7c-1.5,0.4-4.8,1.7-7.3,3l-4.5,2.3l-5.4-5.3l-5.4-5.3l-5.4,5.4L85,91.5l5.3,5.3l5.3,5.3l-2.2,4.3c-1.2,2.4-2.6,5.8-3.1,7.6l-0.9,3.3H82h-7.5v7.6v7.6H82h7.5l0.9,3.3c0.5,1.9,1.9,5.3,3.1,7.7l2.2,4.3l-5.2,5.2l-5.2,5.2l5.4,5.4L96,169l5.2-5.2l5.1-5.1l4.6,2.3c2.5,1.2,5.9,2.6,7.4,3l2.8,0.7l0.2,7.5l0.2,7.6h7.6h7.6l0.2-7.6l0.2-7.5l2.8-0.7c1.6-0.4,4.9-1.8,7.4-3l4.6-2.3l5.3,5.3l5.3,5.4l5.2-5.6l5.3-5.5L168,153l-5.2-5.2l1.3-2.4c1.8-3.1,3.4-7.2,4.2-10.3l0.6-2.5h7.5h7.5V125v-7.6h-7.5h-7.5l-0.6-2.5c-0.8-3.1-2.4-7.2-4.2-10.3l-1.3-2.4l5.3-5.3l5.3-5.3l-5.4-5.4l-5.4-5.4l-5.4,5.3l-5.4,5.3l-3.7-2c-2-1.1-5.3-2.5-7.3-3.1l-3.7-1.1l-0.2-7.5l-0.2-7.5l-7.5-0.1C123.7,70,121.8,70.1,121.7,70.6z M134.4,109.2c2.8,0.8,3.8,1.5,6.3,4c4,4,5.3,7.2,5,12.6c-0.3,4.5-1.5,7.5-4.5,10.7c-6.7,7.2-17.5,7.1-24.2-0.2c-5.9-6.4-5.9-16-0.1-22.2c2.7-2.9,4.6-4.1,8-5C128.6,107.9,130.6,108,134.4,109.2z"/></g></g></g>
</svg>