<?xml version="1.0" ?>

<!-- Uploaded to: SVG Repo, www.svgrepo.com, Generator: SVG Repo Mixer Tools -->
<svg fill="#ffffff" width="800px" height="800px" viewBox="0 0 512 512" version="1.1" xml:space="preserve" xmlns="http://www.w3.org/2000/svg" xmlns:xlink="http://www.w3.org/1999/xlink">

<g id="_x31_7_x2C__Responsive_x2C__adaptive_x2C__device_x2C__laptop_x2C__multi">

<g id="XMLID_858_">

<g id="XMLID_101_">

<path d="M198.483,262.997h-9.966c-2.341,0-4.369-1.625-4.88-3.91l-2.659-11.903     c-2.667-0.81-5.25-1.882-7.728-3.206l-10.329,6.54c-1.977,1.251-4.557,0.965-6.21-0.689l-7.04-7.04     c-1.654-1.654-1.94-4.234-0.689-6.21l6.536-10.324c-1.321-2.468-2.392-5.054-3.204-7.733l-11.902-2.659     c-2.285-0.511-3.91-2.539-3.91-4.88v-9.966c0-2.341,1.625-4.369,3.91-4.88l11.903-2.659c0.81-2.667,1.882-5.25,3.206-7.728     l-6.54-10.329c-1.251-1.977-0.965-4.556,0.689-6.21l7.04-7.04c1.656-1.655,4.239-1.94,6.215-0.686l10.32,6.551     c2.456-1.315,5.04-2.389,7.729-3.211l2.661-11.913c0.511-2.285,2.539-3.91,4.88-3.91h9.966c2.341,0,4.369,1.625,4.88,3.91     l2.661,11.913c2.69,0.822,5.274,1.896,7.729,3.211l10.32-6.551c1.977-1.255,4.56-0.971,6.215,0.686l7.04,7.04     c1.654,1.654,1.94,4.234,0.689,6.21l-6.54,10.329c1.324,2.478,2.396,5.061,3.206,7.728l11.903,2.659     c2.285,0.511,3.91,2.539,3.91,4.88v9.966c0,2.341-1.625,4.369-3.91,4.88l-11.903,2.659c-0.81,2.667-1.882,5.25-3.206,7.728     l6.54,10.329c1.251,1.977,0.965,4.556-0.689,6.21l-7.04,7.04c-1.654,1.654-4.235,1.939-6.21,0.689l-10.324-6.536     c-2.468,1.321-5.054,2.392-7.733,3.204l-2.659,11.902C202.852,261.372,200.824,262.997,198.483,262.997z M192.523,252.997h1.953     l2.449-10.962c0.423-1.893,1.902-3.37,3.795-3.791c3.722-0.827,7.24-2.285,10.456-4.332c1.635-1.04,3.723-1.042,5.359-0.006     l9.511,6.022l1.381-1.381l-6.022-9.511c-1.034-1.633-1.034-3.715-0.001-5.348c2.059-3.254,3.518-6.776,4.339-10.468     c0.421-1.893,1.898-3.372,3.791-3.795l10.962-2.449v-1.953l-10.962-2.449c-1.893-0.423-3.37-1.902-3.791-3.795     c-0.821-3.692-2.28-7.214-4.339-10.468c-1.033-1.633-1.033-3.715,0.001-5.348l6.022-9.511l-1.378-1.377l-9.51,6.037     c-1.64,1.041-3.734,1.038-5.371-0.007c-3.185-2.034-6.708-3.499-10.473-4.354c-1.882-0.428-3.351-1.901-3.771-3.786     l-2.449-10.962h-1.953l-2.449,10.962c-0.421,1.884-1.889,3.358-3.771,3.786c-3.765,0.856-7.289,2.321-10.473,4.354     c-1.638,1.045-3.732,1.048-5.371,0.007l-9.51-6.037l-1.378,1.377l6.022,9.511c1.034,1.633,1.034,3.715,0.001,5.348     c-2.059,3.254-3.518,6.776-4.339,10.468c-0.421,1.893-1.898,3.372-3.791,3.795l-10.962,2.449v1.953l10.962,2.449     c1.893,0.423,3.37,1.902,3.791,3.795c0.827,3.722,2.285,7.24,4.332,10.456c1.04,1.634,1.042,3.722,0.006,5.359l-6.022,9.511     l1.381,1.381l9.511-6.022c1.634-1.033,3.715-1.033,5.348-0.001c3.254,2.059,6.776,3.518,10.468,4.339     c1.893,0.421,3.372,1.898,3.795,3.791L192.523,252.997z" id="XMLID_507_"/>

</g>

<g id="XMLID_100_">

<path d="M193.517,225.977c-11.024,0-19.994-8.954-19.994-19.96c0-11.024,8.969-19.994,19.994-19.994     c11.006,0,19.96,8.969,19.96,19.994C213.477,217.023,204.523,225.977,193.517,225.977z M193.517,196.023     c-5.511,0-9.994,4.483-9.994,9.994c0,5.492,4.483,9.96,9.994,9.96c5.492,0,9.96-4.468,9.96-9.96     C203.477,200.506,199.009,196.023,193.517,196.023z" id="XMLID_504_"/>

</g>

<g id="XMLID_99_">

<path d="M246.667,333.5H140.333c-13.417,0-24.333-10.916-24.333-24.333V102.833     c0-13.417,10.916-24.333,24.333-24.333h106.333C260.084,78.5,271,89.416,271,102.833v206.333     C271,322.584,260.084,333.5,246.667,333.5z M140.333,88.5C132.43,88.5,126,94.93,126,102.833v206.333     c0,7.903,6.43,14.333,14.333,14.333h106.333c7.903,0,14.333-6.43,14.333-14.333V102.833c0-7.903-6.43-14.333-14.333-14.333     H140.333z" id="XMLID_501_"/>

</g>

<g id="XMLID_98_">

<path d="M450,433.5H62c-17.093,0-31-13.906-31-31v-18c0-17.094,13.907-31,31-31h144c2.761,0,5,2.238,5,5v15h90     v-15c0-2.762,2.238-5,5-5h144c17.094,0,31,13.906,31,31v18C481,419.594,467.094,433.5,450,433.5z M62,363.5     c-11.58,0-21,9.421-21,21v18c0,11.579,9.42,21,21,21h388c11.579,0,21-9.421,21-21v-18c0-11.579-9.421-21-21-21H311v15     c0,2.762-2.238,5-5,5H206c-2.761,0-5-2.238-5-5v-15H62z" id="XMLID_498_"/>

</g>

<g id="XMLID_97_">

<path d="M446.477,363.5c-2.762,0-5-2.238-5-5V141.238c0-20.809-16.93-37.738-37.738-37.738H266     c-2.762,0-5-2.239-5-5s2.238-5,5-5h137.738c26.323,0,47.738,21.416,47.738,47.738V358.5     C451.477,361.262,449.238,363.5,446.477,363.5z" id="XMLID_497_"/>

</g>

<g id="XMLID_96_">

<path d="M65.524,363.5c-2.761,0-5-2.238-5-5V141.238c0-26.323,21.415-47.738,47.738-47.738H121     c2.761,0,5,2.239,5,5s-2.239,5-5,5h-12.738c-20.809,0-37.738,16.929-37.738,37.738V358.5     C70.524,361.262,68.285,363.5,65.524,363.5z" id="XMLID_496_"/>

</g>

<g id="XMLID_95_">

<path d="M445.091,333.5H66.909c-2.761,0-5-2.238-5-5s2.239-5,5-5h378.182c2.762,0,5,2.238,5,5     S447.853,333.5,445.091,333.5z" id="XMLID_495_"/>

</g>

<g id="XMLID_94_">

<path d="M266,298.5H121c-2.761,0-5-2.238-5-5s2.239-5,5-5h145c2.762,0,5,2.238,5,5S268.762,298.5,266,298.5z" id="XMLID_494_"/>

</g>

<g id="XMLID_93_">

<path d="M266,123.5H121c-2.761,0-5-2.239-5-5s2.239-5,5-5h145c2.762,0,5,2.239,5,5S268.762,123.5,266,123.5z" id="XMLID_493_"/>

</g>

</g>

</g>

<g id="Layer_1"/>

</svg>